<svg width="46" height="46" viewBox="0 0 46 46" fill="none" xmlns="http://www.w3.org/2000/svg">
<path d="M17.25 34.5V9.58333L40.25 5.75V30.6667" stroke="white" stroke-width="2.5" stroke-linecap="round" stroke-linejoin="round"/>
<path d="M11.5 40.25C14.6756 40.25 17.25 37.6756 17.25 34.5C17.25 31.3244 14.6756 28.75 11.5 28.75C8.32436 28.75 5.75 31.3244 5.75 34.5C5.75 37.6756 8.32436 40.25 11.5 40.25Z" stroke="white" stroke-width="2.5" stroke-linecap="round" stroke-linejoin="round"/>
<path d="M34.5 36.4167C37.6756 36.4167 40.25 33.8423 40.25 30.6667C40.25 27.491 37.6756 24.9167 34.5 24.9167C31.3244 24.9167 28.75 27.491 28.75 30.6667C28.75 33.8423 31.3244 36.4167 34.5 36.4167Z" stroke="white" stroke-width="2.5" stroke-linecap="round" stroke-linejoin="round"/>
</svg>
